<?xml version="1.0" encoding="UTF-8"?>
<!DOCTYPE svg PUBLIC "-//W3C//DTD SVG 1.1//EN" "http://www.w3.org/Graphics/SVG/1.1/DTD/svg11.dtd">
<svg xmlns="http://www.w3.org/2000/svg" version="1.1" width="500px" height="500px" style="shape-rendering:geometricPrecision; text-rendering:geometricPrecision; image-rendering:optimizeQuality; fill-rule:evenodd; clip-rule:evenodd" xmlns:xlink="http://www.w3.org/1999/xlink">
<g><path style="opacity:1" fill="#fefefe" d="M -0.5,-0.5 C 166.167,-0.5 332.833,-0.5 499.5,-0.5C 499.5,166.167 499.5,332.833 499.5,499.5C 332.833,499.5 166.167,499.5 -0.5,499.5C -0.5,332.833 -0.5,166.167 -0.5,-0.5 Z"/></g>
<g><path style="opacity:1" fill="#44473c" d="M 223.5,183.5 C 227.226,183.177 230.893,183.511 234.5,184.5C 233.923,186.55 232.59,187.55 230.5,187.5C 229.833,193.167 229.167,198.833 228.5,204.5C 226.833,204.5 225.167,204.5 223.5,204.5C 224.608,198.854 225.608,193.188 226.5,187.5C 225.5,187.5 224.5,187.5 223.5,187.5C 223.5,186.167 223.5,184.833 223.5,183.5 Z"/></g>
<g><path style="opacity:1" fill="#43463b" d="M 242.5,183.5 C 243.833,183.5 245.167,183.5 246.5,183.5C 245.221,189.786 244.221,196.119 243.5,202.5C 242.432,203.434 241.099,203.768 239.5,203.5C 239.274,200.751 239.607,198.084 240.5,195.5C 239.675,194.614 238.675,194.281 237.5,194.5C 237.196,197.522 236.696,200.522 236,203.5C 234.644,204.38 233.144,204.714 231.5,204.5C 232.726,197.479 234.059,190.479 235.5,183.5C 236.833,183.5 238.167,183.5 239.5,183.5C 238.908,186.127 238.575,188.794 238.5,191.5C 239.5,191.5 240.5,191.5 241.5,191.5C 241.575,188.794 241.908,186.127 242.5,183.5 Z"/></g>
<g><path style="opacity:1" fill="#42443a" d="M 250.5,198.5 C 249.957,198.56 249.624,198.893 249.5,199.5C 251.332,200.057 252.665,201.057 253.5,202.5C 250.977,203.254 248.311,203.92 245.5,204.5C 244.702,204.043 244.369,203.376 244.5,202.5C 246.505,196.791 247.505,190.791 247.5,184.5C 250.743,183.42 254.076,183.253 257.5,184C 256.221,185.646 254.555,186.813 252.5,187.5C 251.754,188.736 251.421,190.07 251.5,191.5C 252.833,191.5 254.167,191.5 255.5,191.5C 255.5,192.5 255.5,193.5 255.5,194.5C 253.833,194.5 252.167,194.5 250.5,194.5C 250.5,195.833 250.5,197.167 250.5,198.5 Z"/></g>
<g><path style="opacity:1" fill="#d1d1cf" d="M 242.5,183.5 C 243.097,182.861 243.93,182.528 245,182.5C 246.376,182.684 247.209,183.351 247.5,184.5C 247.505,190.791 246.505,196.791 244.5,202.5C 244.167,202.5 243.833,202.5 243.5,202.5C 244.221,196.119 245.221,189.786 246.5,183.5C 245.167,183.5 243.833,183.5 242.5,183.5 Z"/></g>
<g><path style="opacity:1" fill="#959791" d="M 250.5,198.5 C 251.568,199.434 252.901,199.768 254.5,199.5C 254.737,200.791 254.404,201.791 253.5,202.5C 252.665,201.057 251.332,200.057 249.5,199.5C 249.624,198.893 249.957,198.56 250.5,198.5 Z"/></g>
<g><path style="opacity:1" fill="#3e4136" d="M 223.5,208.5 C 221.833,209.167 220.167,209.833 218.5,210.5C 215.628,210.635 214.128,211.969 214,214.5C 217.957,212.781 222.124,212.114 226.5,212.5C 231.7,212.767 235.7,215.1 238.5,219.5C 241.354,215.077 245.354,212.743 250.5,212.5C 254.876,212.114 259.043,212.781 263,214.5C 263.617,213.551 263.451,212.718 262.5,212C 261.099,211.59 259.766,211.09 258.5,210.5C 251.725,208.805 251.892,207.805 259,207.5C 263.813,207.495 268.313,208.661 272.5,211C 278.238,217.408 284.571,223.075 291.5,228C 289.423,228.192 287.423,228.692 285.5,229.5C 288.383,232.109 291.717,233.942 295.5,235C 294.552,235.483 293.552,235.649 292.5,235.5C 289.603,235.681 286.77,235.348 284,234.5C 282.278,234.611 282.112,235.111 283.5,236C 287.742,238.527 292.075,239.027 296.5,237.5C 302.573,236.423 305.907,232.756 306.5,226.5C 306.119,221.23 303.452,217.73 298.5,216C 308.04,216.476 313.04,221.643 313.5,231.5C 313.259,237.563 311.259,242.897 307.5,247.5C 306.038,248.458 304.705,249.624 303.5,251C 305.821,251.008 307.821,250.175 309.5,248.5C 311.105,247.031 311.605,247.365 311,249.5C 305.124,256.522 297.624,260.522 288.5,261.5C 282.833,261.5 277.167,261.5 271.5,261.5C 264.339,260.503 258.172,257.503 253,252.5C 253.333,254.833 253.667,257.167 254,259.5C 246.917,255.584 241.751,249.917 238.5,242.5C 235.257,249.91 230.09,255.577 223,259.5C 223.615,257.244 223.948,254.911 224,252.5C 218.865,256.818 213.032,259.651 206.5,261C 198.833,261.667 191.167,261.667 183.5,261C 176.6,258.925 170.934,255.091 166.5,249.5C 167.425,248.438 168.425,248.438 169.5,249.5C 170.799,251.099 172.465,251.599 174.5,251C 173.307,249.905 171.973,249.072 170.5,248.5C 162.148,239.168 161.481,229.334 168.5,219C 171.07,216.541 174.07,215.541 177.5,216C 167.76,224.235 168.426,231.568 179.5,238C 184.977,239.173 189.977,238.173 194.5,235C 190.216,235.457 185.882,235.457 181.5,235C 185.753,233.203 189.753,230.87 193.5,228C 190.867,228.253 188.2,228.253 185.5,228C 192.429,223.075 198.762,217.408 204.5,211C 210.427,207.444 216.76,206.611 223.5,208.5 Z"/></g>
<g><path style="opacity:1" fill="#b2b3af" d="M 223.5,208.5 C 224.376,208.369 225.043,208.702 225.5,209.5C 223.257,210.474 220.924,210.808 218.5,210.5C 220.167,209.833 221.833,209.167 223.5,208.5 Z"/></g>
<g><path style="opacity:1" fill="#bcbdb9" d="M 258.5,210.5 C 259.766,211.09 261.099,211.59 262.5,212C 263.451,212.718 263.617,213.551 263,214.5C 259.043,212.781 254.876,212.114 250.5,212.5C 253.167,211.833 255.833,211.167 258.5,210.5 Z"/></g>
<g><path style="opacity:1" fill="#acaea9" d="M 218.5,210.5 C 221.167,211.167 223.833,211.833 226.5,212.5C 222.124,212.114 217.957,212.781 214,214.5C 214.128,211.969 215.628,210.635 218.5,210.5 Z"/></g>
<g><path style="opacity:1" fill="#c4c4c1" d="M 292.5,235.5 C 291.391,236.29 290.058,236.79 288.5,237C 291.146,237.497 293.813,237.664 296.5,237.5C 292.075,239.027 287.742,238.527 283.5,236C 282.112,235.111 282.278,234.611 284,234.5C 286.77,235.348 289.603,235.681 292.5,235.5 Z"/></g>
<g><path style="opacity:1" fill="#e2e3e1" d="M 206.5,252.5 C 206.062,252.565 205.728,252.399 205.5,252C 206.416,251.722 207.082,251.222 207.5,250.5C 216.224,247.611 223.058,242.278 228,234.5C 225.084,245.227 217.917,251.227 206.5,252.5 Z"/></g>
<g><path style="opacity:1" fill="#d5d6d4" d="M 247.5,232.5 C 250.892,237.401 254.892,241.901 259.5,246C 264.562,248.911 269.895,251.245 275.5,253C 261.339,252.754 252.006,245.92 247.5,232.5 Z"/></g>
<g><path style="opacity:1" fill="#b5b6b2" d="M 307.5,247.5 C 307.842,248.338 308.508,248.672 309.5,248.5C 307.821,250.175 305.821,251.008 303.5,251C 304.705,249.624 306.038,248.458 307.5,247.5 Z"/></g>
<g><path style="opacity:1" fill="#979892" d="M 170.5,248.5 C 171.973,249.072 173.307,249.905 174.5,251C 172.465,251.599 170.799,251.099 169.5,249.5C 170.167,249.5 170.5,249.167 170.5,248.5 Z"/></g>
<g><path style="opacity:1" fill="#959791" d="M 207.5,250.5 C 207.082,251.222 206.416,251.722 205.5,252C 205.728,252.399 206.062,252.565 206.5,252.5C 205.054,253.613 203.387,253.78 201.5,253C 203.217,251.441 205.217,250.608 207.5,250.5 Z"/></g>
<g><path style="opacity:1" fill="#dadbd9" d="M 271.5,261.5 C 277.167,261.5 282.833,261.5 288.5,261.5C 288.5,262.167 288.5,262.833 288.5,263.5C 285.223,263.216 282.057,263.549 279,264.5C 278.513,270.764 277.347,276.764 275.5,282.5C 275.167,282.5 274.833,282.5 274.5,282.5C 275.221,276.119 276.221,269.786 277.5,263.5C 276.167,263.5 274.833,263.5 273.5,263.5C 272.908,266.127 272.575,268.794 272.5,271.5C 271.5,271.5 270.5,271.5 269.5,271.5C 269.575,268.794 269.908,266.127 270.5,263.5C 269.167,263.5 267.833,263.5 266.5,263.5C 268.167,262.833 269.833,262.167 271.5,261.5 Z"/></g>
<g><path style="opacity:1" fill="#45483e" d="M 200.5,262.5 C 201.5,262.5 202.5,262.5 203.5,262.5C 202.587,269.474 201.92,276.474 201.5,283.5C 199.833,283.5 198.167,283.5 196.5,283.5C 196.484,277.134 195.484,277.134 193.5,283.5C 192.675,284.386 191.675,284.719 190.5,284.5C 190.917,274.542 189.917,274.209 187.5,283.5C 186.311,284.429 184.978,284.762 183.5,284.5C 184.705,277.683 186.538,271.016 189,264.5C 190.699,263.594 192.533,263.261 194.5,263.5C 193.938,273.564 195.105,273.898 198,264.5C 198.995,263.934 199.828,263.267 200.5,262.5 Z"/></g>
<g><path style="opacity:1" fill="#46493e" d="M 205.5,263.5 C 207.288,263.215 208.955,263.548 210.5,264.5C 208.723,269.801 208.056,275.135 208.5,280.5C 209.192,279.975 209.692,279.308 210,278.5C 210.974,273.511 211.808,268.511 212.5,263.5C 213.833,263.5 215.167,263.5 216.5,263.5C 216.03,267.97 217.03,268.47 219.5,265C 221.199,264.042 223.033,263.542 225,263.5C 230.057,263.47 235.224,263.803 240.5,264.5C 239.923,266.55 238.59,267.55 236.5,267.5C 235.833,273.167 235.167,278.833 234.5,284.5C 232.833,284.5 231.167,284.5 229.5,284.5C 230.608,278.854 231.608,273.188 232.5,267.5C 230.213,267.724 228.047,268.391 226,269.5C 225.05,268.978 224.216,268.311 223.5,267.5C 222.417,268.365 222.251,269.365 223,270.5C 227.546,273.239 228.546,276.905 226,281.5C 222.007,285.378 218.174,285.378 214.5,281.5C 215.167,280.167 216.167,279.167 217.5,278.5C 219.071,279.309 220.738,279.643 222.5,279.5C 222.649,278.448 222.483,277.448 222,276.5C 219.333,275.167 217.333,273.167 216,270.5C 215,274.167 214,277.833 213,281.5C 210.79,284.29 207.956,285.123 204.5,284C 203.869,282.094 203.536,280.094 203.5,278C 204.089,273.148 204.756,268.314 205.5,263.5 Z"/></g>
<g><path style="opacity:1" fill="#43463b" d="M 242.5,263.5 C 245.167,263.5 247.833,263.5 250.5,263.5C 250.5,270.167 250.5,276.833 250.5,283.5C 249.07,283.421 247.736,283.754 246.5,284.5C 245.548,282.955 245.215,281.288 245.5,279.5C 244.5,279.5 243.5,279.5 242.5,279.5C 242.5,280.833 242.5,282.167 242.5,283.5C 240.833,283.5 239.167,283.5 237.5,283.5C 239.167,276.833 240.833,270.167 242.5,263.5 Z"/></g>
<g><path style="opacity:1" fill="#44473c" d="M 257.5,263.5 C 259.527,263.338 261.527,263.505 263.5,264C 264.38,265.356 264.714,266.856 264.5,268.5C 259.461,268.032 256.628,270.365 256,275.5C 255.219,276.944 255.386,278.277 256.5,279.5C 262.043,276.494 263.21,277.494 260,282.5C 257.253,285.034 254.587,285.034 252,282.5C 250.078,274.986 251.911,268.653 257.5,263.5 Z"/></g>
<g><path style="opacity:1" fill="#44463c" d="M 266.5,263.5 C 267.833,263.5 269.167,263.5 270.5,263.5C 269.908,266.127 269.575,268.794 269.5,271.5C 270.5,271.5 271.5,271.5 272.5,271.5C 272.575,268.794 272.908,266.127 273.5,263.5C 274.833,263.5 276.167,263.5 277.5,263.5C 276.221,269.786 275.221,276.119 274.5,282.5C 273.432,283.434 272.099,283.768 270.5,283.5C 270.274,280.751 270.607,278.084 271.5,275.5C 270.675,274.614 269.675,274.281 268.5,274.5C 268.196,277.522 267.696,280.522 267,283.5C 265.644,284.38 264.144,284.714 262.5,284.5C 263.743,277.358 265.076,270.358 266.5,263.5 Z"/></g>
<g><path style="opacity:1" fill="#42443a" d="M 288.5,263.5 C 287.493,265.522 285.826,266.855 283.5,267.5C 282.754,268.736 282.421,270.07 282.5,271.5C 283.833,271.5 285.167,271.5 286.5,271.5C 286.5,272.5 286.5,273.5 286.5,274.5C 284.833,274.5 283.167,274.5 281.5,274.5C 281.5,275.833 281.5,277.167 281.5,278.5C 280.957,278.56 280.624,278.893 280.5,279.5C 282.332,280.057 283.665,281.057 284.5,282.5C 281.977,283.254 279.311,283.92 276.5,284.5C 275.702,284.043 275.369,283.376 275.5,282.5C 277.347,276.764 278.513,270.764 279,264.5C 282.057,263.549 285.223,263.216 288.5,263.5 Z"/></g>
<g><path style="opacity:1" fill="#c5c6c3" d="M 245.5,267.5 C 246.477,270.287 246.81,273.287 246.5,276.5C 245.325,276.719 244.325,276.386 243.5,275.5C 244.482,272.904 245.149,270.238 245.5,267.5 Z"/></g>
<g><path style="opacity:1" fill="#959791" d="M 281.5,278.5 C 282.568,279.434 283.901,279.768 285.5,279.5C 285.737,280.791 285.404,281.791 284.5,282.5C 283.665,281.057 282.332,280.057 280.5,279.5C 280.624,278.893 280.957,278.56 281.5,278.5 Z"/></g>
</svg>
