<?xml version="1.0" encoding="UTF-8"?>
<!DOCTYPE svg PUBLIC "-//W3C//DTD SVG 1.1//EN" "http://www.w3.org/Graphics/SVG/1.1/DTD/svg11.dtd">
<svg xmlns="http://www.w3.org/2000/svg" version="1.1" width="159px" height="123px" style="shape-rendering:geometricPrecision; text-rendering:geometricPrecision; image-rendering:optimizeQuality; fill-rule:evenodd; clip-rule:evenodd" xmlns:xlink="http://www.w3.org/1999/xlink">
<g><path style="opacity:1" fill="#fbfbfb" d="M -0.5,-0.5 C 52.5,-0.5 105.5,-0.5 158.5,-0.5C 158.5,40.5 158.5,81.5 158.5,122.5C 105.5,122.5 52.5,122.5 -0.5,122.5C -0.5,81.5 -0.5,40.5 -0.5,-0.5 Z"/></g>
<g><path style="opacity:1" fill="#44473c" d="M 72.5,10.5 C 73.675,10.281 74.675,10.6143 75.5,11.5C 74.8728,12.4168 74.5394,13.4168 74.5,14.5C 73.5,14.5 72.5,14.5 71.5,14.5C 70.8333,20.1667 70.1667,25.8333 69.5,31.5C 67.8333,31.5 66.1667,31.5 64.5,31.5C 65.6076,25.8542 66.6076,20.1876 67.5,14.5C 66.5,14.5 65.5,14.5 64.5,14.5C 64.5,13.1667 64.5,11.8333 64.5,10.5C 67.1667,10.5 69.8333,10.5 72.5,10.5 Z"/></g>
<g><path style="opacity:1" fill="#43463b" d="M 80.5,11.5 C 79.7814,13.7638 79.448,16.0971 79.5,18.5C 80.5,18.5 81.5,18.5 82.5,18.5C 82.5751,15.7938 82.9084,13.1272 83.5,10.5C 84.8333,10.5 86.1667,10.5 87.5,10.5C 86.2211,16.7855 85.2211,23.1189 84.5,29.5C 83.4324,30.4345 82.099,30.7678 80.5,30.5C 80.2739,27.7508 80.6072,25.0841 81.5,22.5C 80.675,21.6143 79.675,21.281 78.5,21.5C 78.196,24.5219 77.696,27.5219 77,30.5C 75.6439,31.3802 74.1439,31.7135 72.5,31.5C 73.6076,25.8542 74.6076,20.1876 75.5,14.5C 76.2341,13.2921 76.5674,11.9587 76.5,10.5C 78.099,10.2322 79.4324,10.5655 80.5,11.5 Z"/></g>
<g><path style="opacity:1" fill="#bfbfbc" d="M 72.5,10.5 C 75.3553,9.1968 78.3553,9.1968 81.5,10.5C 81.3764,11.1067 81.0431,11.44 80.5,11.5C 79.4324,10.5655 78.099,10.2322 76.5,10.5C 76.5674,11.9587 76.2341,13.2921 75.5,14.5C 75.1667,14.5 74.8333,14.5 74.5,14.5C 74.5394,13.4168 74.8728,12.4168 75.5,11.5C 74.675,10.6143 73.675,10.281 72.5,10.5 Z"/></g>
<g><path style="opacity:1" fill="#42443a" d="M 91.5,25.5 C 90.9569,25.56 90.6236,25.8933 90.5,26.5C 92.3316,27.0568 93.6649,28.0568 94.5,29.5C 91.9773,30.2537 89.3106,30.9204 86.5,31.5C 85.7025,31.0431 85.3691,30.3764 85.5,29.5C 87.5046,23.7913 88.5046,17.7913 88.5,11.5C 91.7431,10.42 95.0764,10.2534 98.5,11C 97.2214,12.6461 95.5547,13.8128 93.5,14.5C 92.7542,15.7362 92.4208,17.0695 92.5,18.5C 93.8333,18.5 95.1667,18.5 96.5,18.5C 96.5,19.5 96.5,20.5 96.5,21.5C 94.8333,21.5 93.1667,21.5 91.5,21.5C 91.5,22.8333 91.5,24.1667 91.5,25.5 Z"/></g>
<g><path style="opacity:1" fill="#d1d1cf" d="M 83.5,10.5 C 84.0968,9.86137 84.9302,9.52804 86,9.5C 87.3756,9.68423 88.2089,10.3509 88.5,11.5C 88.5046,17.7913 87.5046,23.7913 85.5,29.5C 85.1667,29.5 84.8333,29.5 84.5,29.5C 85.2211,23.1189 86.2211,16.7855 87.5,10.5C 86.1667,10.5 84.8333,10.5 83.5,10.5 Z"/></g>
<g><path style="opacity:1" fill="#959791" d="M 91.5,25.5 C 92.5676,26.4345 93.901,26.7678 95.5,26.5C 95.7373,27.791 95.404,28.791 94.5,29.5C 93.6649,28.0568 92.3316,27.0568 90.5,26.5C 90.6236,25.8933 90.9569,25.56 91.5,25.5 Z"/></g>
<g><path style="opacity:1" fill="#3e4136" d="M 64.5,35.5 C 62.8333,36.1667 61.1667,36.8333 59.5,37.5C 56.6279,37.6354 55.1279,38.9688 55,41.5C 58.9569,39.7806 63.1236,39.114 67.5,39.5C 72.6999,39.7669 76.6999,42.1003 79.5,46.5C 82.3001,42.1003 86.3001,39.7669 91.5,39.5C 95.8764,39.114 100.043,39.7806 104,41.5C 104.617,40.5509 104.451,39.7175 103.5,39C 102.099,38.5899 100.766,38.0899 99.5,37.5C 92.7252,35.8049 92.8918,34.8049 100,34.5C 104.813,34.4947 109.313,35.6614 113.5,38C 119.238,44.4081 125.571,50.0748 132.5,55C 130.423,55.1922 128.423,55.6922 126.5,56.5C 129.383,59.1092 132.717,60.9425 136.5,62C 132.118,62.4569 127.784,62.4569 123.5,62C 128.742,65.8051 134.409,66.4717 140.5,64C 147.7,59.6302 149.2,53.7968 145,46.5C 137.667,42.5388 138.167,41.7054 146.5,44C 155.434,51.7287 156.934,60.8954 151,71.5C 148.833,73.6667 146.667,75.8333 144.5,78C 147.351,77.8276 149.851,76.6609 152,74.5C 150.373,78.4759 147.54,81.6426 143.5,84C 139.114,86.4064 134.448,87.9064 129.5,88.5C 124.5,88.5 119.5,88.5 114.5,88.5C 108.446,86.3581 102.446,84.0248 96.5,81.5C 95.5416,81.0472 94.7083,80.3805 94,79.5C 93.8333,79.8333 93.6667,80.1667 93.5,80.5C 94.5481,82.4559 95.0481,84.4559 95,86.5C 87.9173,82.5838 82.7506,76.9171 79.5,69.5C 76.257,76.9102 71.0903,82.5768 64,86.5C 64.6147,84.2445 64.9481,81.9111 65,79.5C 59.8653,83.8176 54.032,86.6509 47.5,88C 39.8333,88.6667 32.1667,88.6667 24.5,88C 17.6004,85.9245 11.9338,82.0912 7.5,76.5C 8.42463,75.4376 9.42463,75.4376 10.5,76.5C 11.7985,78.0986 13.4652,78.5986 15.5,78C 14.3066,76.9054 12.9733,76.072 11.5,75.5C 3.1476,66.1677 2.48093,56.3344 9.5,46C 12.0699,43.5407 15.0699,42.5407 18.5,43C 8.75964,51.2347 9.4263,58.568 20.5,65C 25.9768,66.1726 30.9768,65.1726 35.5,62C 31.2157,62.4569 26.8823,62.4569 22.5,62C 26.7527,60.2033 30.7527,57.8699 34.5,55C 31.867,55.2532 29.2004,55.2532 26.5,55C 33.4291,50.0748 39.7625,44.4081 45.5,38C 51.4267,34.4443 57.76,33.6109 64.5,35.5 Z"/></g>
<g><path style="opacity:1" fill="#b2b3af" d="M 64.5,35.5 C 65.3764,35.3691 66.0431,35.7025 66.5,36.5C 64.2573,37.4742 61.924,37.8076 59.5,37.5C 61.1667,36.8333 62.8333,36.1667 64.5,35.5 Z"/></g>
<g><path style="opacity:1" fill="#bcbdb9" d="M 99.5,37.5 C 100.766,38.0899 102.099,38.5899 103.5,39C 104.451,39.7175 104.617,40.5509 104,41.5C 100.043,39.7806 95.8764,39.114 91.5,39.5C 94.1667,38.8333 96.8333,38.1667 99.5,37.5 Z"/></g>
<g><path style="opacity:1" fill="#acaea9" d="M 59.5,37.5 C 62.1667,38.1667 64.8333,38.8333 67.5,39.5C 63.1236,39.114 58.9569,39.7806 55,41.5C 55.1279,38.9688 56.6279,37.6354 59.5,37.5 Z"/></g>
<g><path style="opacity:1" fill="#e3e4e2" d="M 47.5,79.5 C 47.0618,79.5654 46.7284,79.3988 46.5,79C 47.4158,78.7216 48.0825,78.2216 48.5,77.5C 57.2242,74.6113 64.0576,69.278 69,61.5C 66.084,72.2274 58.9174,78.2274 47.5,79.5 Z"/></g>
<g><path style="opacity:1" fill="#d5d6d4" d="M 88.5,59.5 C 91.8918,64.4005 95.8918,68.9005 100.5,73C 105.562,75.9112 110.895,78.2445 116.5,80C 102.339,79.7536 93.006,72.9203 88.5,59.5 Z"/></g>
<g><path style="opacity:1" fill="#979892" d="M 11.5,75.5 C 12.9733,76.072 14.3066,76.9054 15.5,78C 13.4652,78.5986 11.7985,78.0986 10.5,76.5C 11.1667,76.5 11.5,76.1667 11.5,75.5 Z"/></g>
<g><path style="opacity:1" fill="#959791" d="M 48.5,77.5 C 48.0825,78.2216 47.4158,78.7216 46.5,79C 46.7284,79.3988 47.0618,79.5654 47.5,79.5C 46.0536,80.6129 44.3869,80.7796 42.5,80C 44.2166,78.4412 46.2166,77.6079 48.5,77.5 Z"/></g>
<g><path style="opacity:1" fill="#5e6057" d="M 96.5,81.5 C 102.446,84.0248 108.446,86.3581 114.5,88.5C 113.833,88.5 113.167,88.5 112.5,88.5C 106.404,87.698 101.07,85.3647 96.5,81.5 Z"/></g>
<g><path style="opacity:1" fill="#d3d4d1" d="M 112.5,88.5 C 113.167,88.5 113.833,88.5 114.5,88.5C 119.5,88.5 124.5,88.5 129.5,88.5C 129.5,89.1667 129.5,89.8333 129.5,90.5C 126.223,90.2161 123.057,90.5495 120,91.5C 119.513,97.7638 118.347,103.764 116.5,109.5C 116.167,109.5 115.833,109.5 115.5,109.5C 116.221,103.119 117.221,96.7855 118.5,90.5C 117.167,90.5 115.833,90.5 114.5,90.5C 113.908,93.1272 113.575,95.7938 113.5,98.5C 112.5,98.5 111.5,98.5 110.5,98.5C 110.575,95.7938 110.908,93.1272 111.5,90.5C 110.167,90.5 108.833,90.5 107.5,90.5C 109.167,89.8333 110.833,89.1667 112.5,88.5 Z"/></g>
<g><path style="opacity:1" fill="#45483e" d="M 43.5,102.5 C 42.5655,103.568 42.2322,104.901 42.5,106.5C 42.5,107.833 42.5,109.167 42.5,110.5C 40.8333,110.5 39.1667,110.5 37.5,110.5C 37.4845,104.134 36.4845,104.134 34.5,110.5C 33.675,111.386 32.675,111.719 31.5,111.5C 31.9166,101.542 30.9166,101.209 28.5,110.5C 27.3112,111.429 25.9778,111.762 24.5,111.5C 25.7049,104.683 27.5382,98.0159 30,91.5C 31.6995,90.5939 33.5328,90.2606 35.5,90.5C 34.9385,100.564 36.1051,100.898 39,91.5C 40.5843,90.1387 42.4176,89.472 44.5,89.5C 43.9198,93.81 43.5865,98.1434 43.5,102.5 Z"/></g>
<g><path style="opacity:1" fill="#45483d" d="M 44.5,109.5 C 44.5,107.833 44.5,106.167 44.5,104.5C 45.1667,99.8333 45.8333,95.1667 46.5,90.5C 48.288,90.2148 49.9547,90.5481 51.5,91.5C 49.7231,96.8014 49.0565,102.135 49.5,107.5C 50.1924,106.975 50.6924,106.308 51,105.5C 51.9744,100.511 52.8077,95.5108 53.5,90.5C 54.8333,90.5 56.1667,90.5 57.5,90.5C 57.0301,94.9704 58.0301,95.4704 60.5,92C 62.1992,91.0419 64.0326,90.5419 66,90.5C 71.0572,90.4698 76.2239,90.8031 81.5,91.5C 80.9234,93.5499 79.5901,94.5499 77.5,94.5C 76.8333,100.167 76.1667,105.833 75.5,111.5C 73.8333,111.5 72.1667,111.5 70.5,111.5C 71.6076,105.854 72.6076,100.188 73.5,94.5C 70.1667,95.8333 66.8333,95.8333 63.5,94.5C 63.918,97.4389 65.418,99.7722 68,101.5C 69.1256,107.248 66.7922,110.581 61,111.5C 55.2239,110.974 54.3906,108.974 58.5,105.5C 60.0709,106.309 61.7376,106.643 63.5,106.5C 63.6495,105.448 63.4828,104.448 63,103.5C 60.3333,102.167 58.3333,100.167 57,97.5C 56,101.167 55,104.833 54,108.5C 51.0053,111.979 47.8386,112.312 44.5,109.5 Z"/></g>
<g><path style="opacity:1" fill="#43463b" d="M 83.5,90.5 C 86.1667,90.5 88.8333,90.5 91.5,90.5C 91.5,97.1667 91.5,103.833 91.5,110.5C 90.0695,110.421 88.7362,110.754 87.5,111.5C 86.5481,109.955 86.2148,108.288 86.5,106.5C 85.5,106.5 84.5,106.5 83.5,106.5C 83.5,107.833 83.5,109.167 83.5,110.5C 81.8333,110.5 80.1667,110.5 78.5,110.5C 80.1667,103.833 81.8333,97.1667 83.5,90.5 Z"/></g>
<g><path style="opacity:1" fill="#44473c" d="M 98.5,90.5 C 100.527,90.3379 102.527,90.5045 104.5,91C 105.38,92.3561 105.714,93.8561 105.5,95.5C 100.461,95.0315 97.6276,97.3649 97,102.5C 96.2195,103.944 96.3861,105.277 97.5,106.5C 103.043,103.494 104.21,104.494 101,109.5C 98.2533,112.034 95.5867,112.034 93,109.5C 91.0775,101.986 92.9108,95.6525 98.5,90.5 Z"/></g>
<g><path style="opacity:1" fill="#44463c" d="M 107.5,90.5 C 108.833,90.5 110.167,90.5 111.5,90.5C 110.908,93.1272 110.575,95.7938 110.5,98.5C 111.5,98.5 112.5,98.5 113.5,98.5C 113.575,95.7938 113.908,93.1272 114.5,90.5C 115.833,90.5 117.167,90.5 118.5,90.5C 117.221,96.7855 116.221,103.119 115.5,109.5C 114.432,110.434 113.099,110.768 111.5,110.5C 111.274,107.751 111.607,105.084 112.5,102.5C 111.675,101.614 110.675,101.281 109.5,101.5C 109.196,104.522 108.696,107.522 108,110.5C 106.644,111.38 105.144,111.714 103.5,111.5C 104.743,104.358 106.076,97.3576 107.5,90.5 Z"/></g>
<g><path style="opacity:1" fill="#42443a" d="M 129.5,90.5 C 128.493,92.522 126.826,93.8553 124.5,94.5C 123.754,95.7362 123.421,97.0695 123.5,98.5C 124.833,98.5 126.167,98.5 127.5,98.5C 127.5,99.5 127.5,100.5 127.5,101.5C 125.833,101.5 124.167,101.5 122.5,101.5C 122.5,102.833 122.5,104.167 122.5,105.5C 121.957,105.56 121.624,105.893 121.5,106.5C 123.332,107.057 124.665,108.057 125.5,109.5C 122.977,110.254 120.311,110.92 117.5,111.5C 116.702,111.043 116.369,110.376 116.5,109.5C 118.347,103.764 119.513,97.7638 120,91.5C 123.057,90.5495 126.223,90.2161 129.5,90.5 Z"/></g>
<g><path style="opacity:1" fill="#c5c6c3" d="M 86.5,94.5 C 87.4767,97.2869 87.81,100.287 87.5,103.5C 86.325,103.719 85.325,103.386 84.5,102.5C 85.4822,99.9044 86.1489,97.2377 86.5,94.5 Z"/></g>
<g><path style="opacity:1" fill="#a1a39d" d="M 43.5,102.5 C 43.3284,103.492 43.6618,104.158 44.5,104.5C 44.5,106.167 44.5,107.833 44.5,109.5C 43.8333,108.5 43.1667,107.5 42.5,106.5C 42.2322,104.901 42.5655,103.568 43.5,102.5 Z"/></g>
<g><path style="opacity:1" fill="#959791" d="M 122.5,105.5 C 123.568,106.434 124.901,106.768 126.5,106.5C 126.737,107.791 126.404,108.791 125.5,109.5C 124.665,108.057 123.332,107.057 121.5,106.5C 121.624,105.893 121.957,105.56 122.5,105.5 Z"/></g>
</svg>
