<svg width="200" height="200" viewBox="0 0 200 200" fill="none" xmlns="http://www.w3.org/2000/svg">
<path d="M84.88 62.032C85.3707 59.6853 85.84 57.3707 86.288 55.088C86.48 54.128 86.672 53.1253 86.864 52.08C87.056 51.0347 87.2373 50.0107 87.408 49.008C87.6 47.984 87.76 47.0027 87.888 46.064C88.0373 45.104 88.1653 44.2293 88.272 43.44C87.7813 43.376 87.28 43.3547 86.768 43.376C86.2773 43.3973 85.7867 43.3333 85.296 43.184C85.3173 42.8427 85.328 42.448 85.328 42C85.328 41.552 85.3387 41.104 85.36 40.656C85.3813 40.1653 85.4027 39.6427 85.424 39.088C85.9787 39.1307 86.5333 39.1627 87.088 39.184C87.6427 39.2053 88.1973 39.216 88.752 39.216C89.84 39.216 90.8853 39.1947 91.888 39.152C92.912 39.088 93.8507 39.024 94.704 38.96C95.5787 38.8747 96.432 38.7787 97.264 38.672L96.912 40.4C96.8053 40.8907 96.6987 41.392 96.592 41.904C96.5067 42.416 96.4213 42.8533 96.336 43.216C95.8667 43.344 95.3867 43.44 94.896 43.504C94.4267 43.5467 93.9573 43.6107 93.488 43.696C93.3387 44.4213 93.1787 45.232 93.008 46.128C92.8373 47.0027 92.6667 47.92 92.496 48.88C92.3467 49.8187 92.1973 50.7787 92.048 51.76C91.8987 52.7413 91.7493 53.68 91.6 54.576C91.2587 56.688 90.9387 58.8747 90.64 61.136L84.88 62.032ZM93.8498 62.064C94.4471 59.0773 95.0231 56.1653 95.5778 53.328C95.7911 52.112 96.0151 50.8533 96.2498 49.552C96.4844 48.2293 96.6978 46.928 96.8898 45.648C97.1031 44.368 97.2951 43.1307 97.4658 41.936C97.6578 40.72 97.8071 39.6213 97.9138 38.64C98.4044 38.6613 98.8524 38.6933 99.2578 38.736C99.6844 38.7573 100.1 38.7787 100.506 38.8C100.911 38.8213 101.316 38.8427 101.722 38.864C102.148 38.864 102.607 38.864 103.098 38.864C102.735 40.3787 102.372 41.8933 102.01 43.408C101.668 44.9227 101.348 46.448 101.05 47.984L104.218 47.632C104.516 46.1173 104.783 44.656 105.018 43.248C105.252 41.8187 105.562 40.3467 105.946 38.832C106.436 38.7467 106.98 38.6827 107.578 38.64C108.175 38.576 108.73 38.5227 109.242 38.48C109.754 38.4373 110.18 38.4053 110.522 38.384C110.884 38.3413 111.066 38.32 111.066 38.32C110.767 39.28 110.479 40.336 110.202 41.488C109.946 42.6187 109.69 43.8027 109.434 45.04C109.178 46.256 108.932 47.4933 108.698 48.752C108.463 50.0107 108.25 51.2053 108.058 52.336C107.588 55.0453 107.151 57.8187 106.746 60.656L101.754 61.232C102.031 59.952 102.276 58.704 102.49 57.488C102.703 56.464 102.916 55.3973 103.13 54.288C103.364 53.1787 103.546 52.2293 103.674 51.44L100.57 51.728C100.42 52.5387 100.239 53.4773 100.026 54.544C99.8338 55.6107 99.6524 56.624 99.4818 57.584C99.2471 58.736 99.0124 59.888 98.7778 61.04L93.8498 62.064ZM107.975 62.032L112.167 39.28L122.279 38.416C122.129 38.8853 122.001 39.3653 121.895 39.856C121.788 40.2613 121.681 40.688 121.575 41.136C121.489 41.5627 121.415 41.9467 121.351 42.288C121.137 42.3093 120.828 42.3307 120.423 42.352C120.039 42.352 119.623 42.3627 119.175 42.384C118.727 42.384 118.268 42.384 117.799 42.384C117.351 42.384 116.956 42.384 116.615 42.384L115.495 48.112C116.156 48.0693 116.775 48.0373 117.351 48.016C117.82 47.9947 118.3 47.984 118.791 47.984C119.281 47.984 119.644 47.9733 119.879 47.952C119.793 48.5493 119.708 49.136 119.623 49.712C119.559 50.288 119.473 50.8747 119.367 51.472C119.153 51.4933 118.801 51.5147 118.311 51.536C117.841 51.536 117.361 51.5467 116.871 51.568C116.316 51.5893 115.708 51.6107 115.047 51.632L113.959 57.52L118.631 56.784L118.311 60.432L107.975 62.032Z" fill="#3B3E33"/>
<path d="M40.04 145.808C40.9787 142.971 41.8747 140.187 42.728 137.456C43.0907 136.304 43.464 135.099 43.848 133.84C44.232 132.581 44.616 131.333 45 130.096C45.384 128.859 45.736 127.664 46.056 126.512C46.3973 125.36 46.696 124.293 46.952 123.312C48.1253 123.312 49.2347 123.248 50.28 123.12C51.3253 122.992 52.456 122.875 53.672 122.768C53.608 123.237 53.5333 123.771 53.448 124.368C53.384 124.944 53.2987 125.552 53.192 126.192C53.1067 126.832 53.0107 127.493 52.904 128.176C52.7973 128.859 52.6693 129.733 52.52 130.8C52.3707 131.867 52.168 133.2 51.912 134.8H52.328C52.9467 133.179 53.4587 131.835 53.864 130.768C54.2693 129.68 54.6 128.795 54.856 128.112C55.112 127.429 55.368 126.768 55.624 126.128C55.9013 125.467 56.1573 124.848 56.392 124.272C56.648 123.675 56.8827 123.152 57.096 122.704C57.6293 122.661 58.1307 122.608 58.6 122.544C59.0693 122.48 59.5387 122.416 60.008 122.352C60.4773 122.267 60.9467 122.192 61.416 122.128C61.9067 122.043 62.44 121.947 63.016 121.84C62.8027 123.077 62.6 124.347 62.408 125.648C62.216 126.949 62.0453 128.251 61.896 129.552C61.7467 130.832 61.5973 132.101 61.448 133.36C61.32 134.619 61.2027 135.813 61.096 136.944C60.84 139.589 60.616 142.171 60.424 144.688L54.856 145.68C54.856 145.573 54.8667 145.285 54.888 144.816C54.9307 144.347 54.9733 143.771 55.016 143.088C55.08 142.405 55.1547 141.648 55.24 140.816C55.3467 139.984 55.4427 139.152 55.528 138.32C55.6347 137.488 55.7413 136.688 55.848 135.92C55.9547 135.131 56.0613 134.459 56.168 133.904H55.88C55.5813 134.8 55.2507 135.749 54.888 136.752C54.5253 137.733 54.152 138.736 53.768 139.76C53.4053 140.784 53.0427 141.787 52.68 142.768C52.3173 143.749 51.9973 144.688 51.72 145.584C50.9733 145.605 50.3333 145.637 49.8 145.68C49.2667 145.701 48.648 145.733 47.944 145.776L48.968 133.904H48.488C48.4453 134.181 48.3387 134.651 48.168 135.312C47.9973 135.952 47.7947 136.699 47.56 137.552C47.3467 138.384 47.112 139.259 46.856 140.176C46.6 141.072 46.3547 141.915 46.12 142.704C45.9067 143.472 45.7253 144.112 45.576 144.624C45.4267 145.115 45.3413 145.392 45.32 145.456L40.04 145.808ZM74.1245 139.76C73.8258 140.976 73.3992 142.011 72.8445 142.864C72.3112 143.717 71.6712 144.421 70.9245 144.976C70.1992 145.531 69.4205 145.936 68.5885 146.192C67.7565 146.448 66.9245 146.576 66.0925 146.576C65.6018 146.576 65.1005 146.491 64.5885 146.32C64.0765 146.171 63.6178 145.936 63.2125 145.616C62.8072 145.296 62.4658 144.891 62.1885 144.4C61.9325 143.909 61.8045 143.333 61.8045 142.672C61.8045 142.587 61.8045 142.501 61.8045 142.416C61.8045 142.331 61.8152 142.245 61.8365 142.16C61.9218 141.285 62.0605 140.229 62.2525 138.992C62.4445 137.755 62.6472 136.464 62.8605 135.12C63.0738 133.776 63.3085 132.432 63.5645 131.088C63.8205 129.723 64.0445 128.485 64.2365 127.376C64.4498 126.267 64.6312 125.349 64.7805 124.624C64.9298 123.877 65.0258 123.419 65.0685 123.248C65.5165 123.205 66.0498 123.152 66.6685 123.088C67.2872 123.024 67.8632 122.971 68.3965 122.928C69.0578 122.864 69.7085 122.8 70.3485 122.736C69.7938 125.317 69.3032 127.653 68.8765 129.744C68.6845 130.64 68.4925 131.536 68.3005 132.432C68.1298 133.328 67.9592 134.149 67.7885 134.896C67.6392 135.643 67.5005 136.293 67.3725 136.848C67.2658 137.381 67.1698 137.819 67.0845 138.16C67.0205 138.501 66.9352 138.939 66.8285 139.472C66.7432 139.984 66.7005 140.453 66.7005 140.88C66.7005 141.221 66.7858 141.509 66.9565 141.744C67.1272 141.957 67.3405 142.064 67.5965 142.064C67.9592 142.064 68.2578 141.925 68.4925 141.648C68.7272 141.349 68.9192 140.997 69.0685 140.592C69.2392 140.187 69.3565 139.781 69.4205 139.376C69.5058 138.949 69.5805 138.619 69.6445 138.384C69.7725 137.765 69.9112 137.083 70.0605 136.336C70.2312 135.568 70.3912 134.779 70.5405 133.968C70.7112 133.136 70.8712 132.293 71.0205 131.44C71.1912 130.587 71.3512 129.755 71.5005 128.944C71.8632 127.067 72.2152 125.125 72.5565 123.12L77.4205 122.8C77.4205 122.8 77.3672 123.077 77.2605 123.632C77.1538 124.187 77.0152 124.923 76.8445 125.84C76.6738 126.757 76.4818 127.803 76.2685 128.976C76.0765 130.149 75.8525 131.376 75.5965 132.656C75.3405 133.915 75.0845 135.163 74.8285 136.4C74.5938 137.616 74.3592 138.736 74.1245 139.76ZM88.3948 138.096C88.3948 139.291 88.1601 140.379 87.6908 141.36C87.2428 142.32 86.6241 143.152 85.8348 143.856C85.0668 144.56 84.1494 145.104 83.0828 145.488C82.0374 145.872 80.9068 146.064 79.6908 146.064C78.8374 146.064 77.9841 145.84 77.1308 145.392C76.2774 144.923 75.4561 144.187 74.6668 143.184L77.0348 138.544C77.1841 138.821 77.4081 139.109 77.7068 139.408C78.0054 139.685 78.3361 139.931 78.6988 140.144C79.0828 140.357 79.4561 140.539 79.8188 140.688C80.2028 140.816 80.5441 140.88 80.8428 140.88C81.0988 140.88 81.3654 140.837 81.6428 140.752C81.9201 140.667 82.1761 140.539 82.4108 140.368C82.6454 140.197 82.8268 140.005 82.9548 139.792C83.1041 139.557 83.1788 139.291 83.1788 138.992C83.1788 138.48 83.0081 138.011 82.6667 137.584C82.3468 137.136 81.9414 136.72 81.4508 136.336C80.9601 135.931 80.4268 135.525 79.8508 135.12C79.2748 134.715 78.7414 134.288 78.2508 133.84C77.7814 133.392 77.3761 132.891 77.0348 132.336C76.6934 131.781 76.5228 131.163 76.5228 130.48C76.5228 129.371 76.8534 128.336 77.5148 127.376C78.1761 126.416 78.9974 125.595 79.9788 124.912C80.9814 124.208 82.0694 123.653 83.2428 123.248C84.4161 122.843 85.5254 122.64 86.5708 122.64C87.1468 122.64 87.6908 122.715 88.2028 122.864C88.7148 122.992 89.1521 123.216 89.5148 123.536C89.8988 123.835 90.1974 124.219 90.4108 124.688C90.6454 125.157 90.7628 125.744 90.7628 126.448C90.7628 126.747 90.7308 127.045 90.6667 127.344C90.6241 127.643 90.5814 127.963 90.5388 128.304L85.8988 129.648C85.9414 129.477 85.9734 129.307 85.9948 129.136C86.0374 128.965 86.0588 128.795 86.0588 128.624C86.0588 127.984 85.9414 127.525 85.7068 127.248C85.4934 126.949 85.2054 126.8 84.8428 126.8C84.6721 126.8 84.4588 126.864 84.2028 126.992C83.9681 127.12 83.7228 127.291 83.4668 127.504C83.2321 127.696 83.0294 127.931 82.8588 128.208C82.6881 128.485 82.6028 128.784 82.6028 129.104C82.6028 129.616 82.7414 130.043 83.0188 130.384C83.3174 130.725 83.6801 131.045 84.1068 131.344C84.5334 131.643 84.9921 131.952 85.4828 132.272C85.9948 132.571 86.4641 132.965 86.8908 133.456C87.3174 133.947 87.6694 134.565 87.9468 135.312C88.2454 136.037 88.3948 136.965 88.3948 138.096ZM90.8488 146.032C91.3394 143.685 91.8088 141.371 92.2568 139.088C92.4488 138.128 92.6408 137.125 92.8328 136.08C93.0248 135.035 93.2061 134.011 93.3768 133.008C93.5688 131.984 93.7288 131.003 93.8568 130.064C94.0061 129.104 94.1341 128.229 94.2408 127.44C93.7501 127.376 93.2488 127.355 92.7368 127.376C92.2461 127.397 91.7554 127.333 91.2648 127.184C91.2861 126.843 91.2968 126.448 91.2968 126C91.2968 125.552 91.3074 125.104 91.3288 124.656C91.3501 124.165 91.3714 123.643 91.3928 123.088C91.9474 123.131 92.5021 123.163 93.0568 123.184C93.6114 123.205 94.1661 123.216 94.7208 123.216C95.8088 123.216 96.8541 123.195 97.8568 123.152C98.8808 123.088 99.8194 123.024 100.673 122.96C101.547 122.875 102.401 122.779 103.233 122.672L102.881 124.4C102.774 124.891 102.667 125.392 102.561 125.904C102.475 126.416 102.39 126.853 102.305 127.216C101.835 127.344 101.355 127.44 100.865 127.504C100.395 127.547 99.9261 127.611 99.4568 127.696C99.3074 128.421 99.1474 129.232 98.9768 130.128C98.8061 131.003 98.6354 131.92 98.4648 132.88C98.3154 133.819 98.1661 134.779 98.0168 135.76C97.8674 136.741 97.7181 137.68 97.5688 138.576C97.2274 140.688 96.9074 142.875 96.6088 145.136L90.8488 146.032ZM111.339 145.36C110.805 145.445 110.219 145.541 109.579 145.648C108.939 145.755 108.363 145.851 107.851 145.936C107.936 145.232 108.021 144.539 108.107 143.856C108.171 143.259 108.224 142.661 108.267 142.064C108.331 141.467 108.384 140.955 108.427 140.528H105.643L104.363 145.136C103.893 145.2 103.339 145.275 102.699 145.36C102.059 145.424 101.461 145.488 100.907 145.552C100.224 145.637 99.5518 145.723 98.8905 145.808C99.7438 142.971 100.587 140.176 101.419 137.424C101.76 136.272 102.112 135.067 102.475 133.808C102.859 132.549 103.232 131.301 103.595 130.064C103.979 128.805 104.341 127.6 104.683 126.448C105.024 125.296 105.323 124.24 105.579 123.28C107.029 123.173 108.501 123.045 109.995 122.896C111.509 122.747 112.981 122.544 114.411 122.288C114.347 122.971 114.272 123.824 114.187 124.848C114.123 125.851 114.059 126.949 113.995 128.144C113.931 129.339 113.867 130.587 113.803 131.888C113.739 133.189 113.675 134.469 113.611 135.728C113.504 138.672 113.387 141.797 113.259 145.104C112.619 145.211 111.979 145.296 111.339 145.36ZM106.411 137.328C106.496 137.328 106.645 137.328 106.859 137.328C107.093 137.307 107.328 137.296 107.562 137.296C107.819 137.275 108.053 137.264 108.267 137.264C108.48 137.243 108.629 137.221 108.715 137.2C108.715 137.072 108.725 136.859 108.747 136.56C108.789 136.24 108.821 135.888 108.843 135.504C108.885 135.099 108.928 134.661 108.97 134.192C109.013 133.723 109.056 133.264 109.099 132.816C109.184 131.728 109.291 130.555 109.419 129.296L109.611 126.512L109.131 126.544L108.395 129.296L106.411 137.328ZM127.07 139.12C126.558 140.293 125.982 141.317 125.342 142.192C124.724 143.045 124.062 143.771 123.358 144.368C122.676 144.944 121.982 145.371 121.278 145.648C120.574 145.925 119.892 146.064 119.23 146.064C118.569 146.064 117.961 145.915 117.406 145.616C116.873 145.317 116.404 144.869 115.998 144.272C115.593 143.675 115.262 142.939 115.006 142.064C114.772 141.189 114.654 140.165 114.654 138.992C114.654 136.987 114.932 135.013 115.486 133.072C116.041 131.109 116.82 129.349 117.822 127.792C118.825 126.235 120.009 124.987 121.374 124.048C122.761 123.088 124.286 122.608 125.95 122.608C126.462 122.608 126.953 122.715 127.422 122.928C127.892 123.141 128.297 123.44 128.638 123.824C128.98 124.208 129.246 124.677 129.438 125.232C129.652 125.787 129.758 126.405 129.758 127.088C129.758 127.216 129.758 127.355 129.758 127.504C129.758 127.632 129.748 127.771 129.726 127.92L125.534 129.04C125.278 128.507 124.98 128.24 124.638 128.24C124.297 128.24 123.934 128.443 123.55 128.848C123.188 129.232 122.825 129.744 122.462 130.384C122.1 131.003 121.748 131.707 121.406 132.496C121.065 133.264 120.766 134.043 120.51 134.832C120.254 135.621 120.041 136.379 119.87 137.104C119.721 137.808 119.646 138.384 119.646 138.832C119.646 139.515 119.732 139.995 119.902 140.272C120.094 140.549 120.34 140.688 120.638 140.688C120.873 140.688 121.14 140.603 121.438 140.432C121.737 140.24 122.014 140.005 122.27 139.728C122.526 139.429 122.761 139.099 122.974 138.736C123.188 138.373 123.337 138.011 123.422 137.648L127.07 139.12ZM126.912 146.064C127.51 143.077 128.086 140.165 128.64 137.328C128.854 136.112 129.078 134.853 129.312 133.552C129.547 132.229 129.76 130.928 129.952 129.648C130.166 128.368 130.358 127.131 130.528 125.936C130.72 124.72 130.87 123.621 130.976 122.64C131.467 122.661 131.915 122.693 132.32 122.736C132.747 122.757 133.163 122.779 133.568 122.8C133.974 122.821 134.379 122.843 134.784 122.864C135.211 122.864 135.67 122.864 136.16 122.864C135.798 124.379 135.435 125.893 135.072 127.408C134.731 128.923 134.411 130.448 134.112 131.984L137.28 131.632C137.579 130.117 137.846 128.656 138.08 127.248C138.315 125.819 138.624 124.347 139.008 122.832C139.499 122.747 140.043 122.683 140.64 122.64C141.238 122.576 141.792 122.523 142.304 122.48C142.816 122.437 143.243 122.405 143.584 122.384C143.947 122.341 144.128 122.32 144.128 122.32C143.83 123.28 143.542 124.336 143.264 125.488C143.008 126.619 142.752 127.803 142.496 129.04C142.24 130.256 141.995 131.493 141.76 132.752C141.526 134.011 141.312 135.205 141.12 136.336C140.651 139.045 140.214 141.819 139.808 144.656L134.816 145.232C135.094 143.952 135.339 142.704 135.552 141.488C135.766 140.464 135.979 139.397 136.192 138.288C136.427 137.179 136.608 136.229 136.736 135.44L133.632 135.728C133.483 136.539 133.302 137.477 133.088 138.544C132.896 139.611 132.715 140.624 132.544 141.584C132.31 142.736 132.075 143.888 131.84 145.04L126.912 146.064ZM141.037 146.032L145.229 123.28L155.341 122.416C155.192 122.885 155.064 123.365 154.957 123.856C154.851 124.261 154.744 124.688 154.637 125.136C154.552 125.563 154.477 125.947 154.413 126.288C154.2 126.309 153.891 126.331 153.485 126.352C153.101 126.352 152.685 126.363 152.237 126.384C151.789 126.384 151.331 126.384 150.861 126.384C150.413 126.384 150.019 126.384 149.677 126.384L148.557 132.112C149.219 132.069 149.837 132.037 150.413 132.016C150.883 131.995 151.363 131.984 151.853 131.984C152.344 131.984 152.707 131.973 152.941 131.952C152.856 132.549 152.771 133.136 152.685 133.712C152.621 134.288 152.536 134.875 152.429 135.472C152.216 135.493 151.864 135.515 151.373 135.536C150.904 135.536 150.424 135.547 149.933 135.568C149.379 135.589 148.771 135.611 148.109 135.632L147.021 141.52L151.693 140.784L151.373 144.432L141.037 146.032Z" fill="#3B3E33"/>
<path d="M83.924 64.0713C80.5884 64.5906 79.0711 65.0451 76.5182 66.2785C74.1459 67.4309 71.0271 69.8816 68.5705 72.5108C66.4511 74.783 63.1396 79.4897 59.2982 85.6408C54.5416 93.2689 51.9285 96.7097 49.0264 99.1279C46.3531 101.368 43.6918 102.715 40.3923 103.526C38.6944 103.932 35.3227 103.9 33.697 103.445C30.5902 102.601 28.6755 101.173 27.9169 99.1604C27.0017 96.7259 27.0739 93.6909 28.0975 91.6784C28.8321 90.2339 30.3373 88.968 31.3127 88.968C32.3363 88.968 33.107 90.2501 33.4803 92.571C33.6007 93.2689 33.7452 93.837 33.8054 93.837C34.0221 93.837 33.8054 90.4449 33.5164 89.2114C32.5892 85.1864 30.4336 84.3424 26.9294 86.6309C25.0389 87.8643 23.8828 89.8282 23.2687 92.8145C22.9315 94.4537 22.9074 98.3002 23.2205 100.134C24.5692 108.265 29.0849 114.498 36.1897 118.068C43.6196 121.817 52.9882 122.045 66.0417 118.815C69.4375 117.971 71.6171 117.257 74.4109 116.056C82.3104 112.647 89.957 107.292 95.4 101.351C96.7848 99.842 98.8078 97.1154 99.4581 95.8982C99.723 95.395 99.9759 94.9893 100.012 94.973C100.048 94.973 100.277 95.3626 100.53 95.8495C101.108 96.9856 103.504 100.167 104.937 101.708C111.283 108.525 121.278 114.936 129.804 117.679C133.055 118.717 138.799 120 142.508 120.519C149.818 121.541 156.224 121.103 161.197 119.221C169.735 116.007 175.262 109.223 176.779 100.134C177.093 98.3002 177.068 94.4537 176.731 92.8145C176.117 89.8282 174.961 87.8643 173.071 86.6309C171.601 85.6733 170.626 85.3325 169.542 85.4298C168.591 85.511 168.145 85.7707 167.567 86.5659C166.724 87.7183 166.255 89.5523 166.146 92.0841C166.062 94.1778 166.219 94.3888 166.52 92.571C167.026 89.4062 168.157 88.335 169.843 89.39C172.613 91.1266 173.552 95.4437 171.999 99.3714C170.927 102.082 167.399 103.786 162.859 103.802C158.608 103.802 154.731 102.277 150.949 99.1117C148.288 96.8882 145.314 93.0092 141.063 86.2089C134.609 75.8866 131.574 72.0077 127.444 68.8104C121.134 63.909 113.306 62.6268 107.406 65.5482C105.034 66.733 103.023 68.5183 101.204 71.0664L100 72.738L98.7958 71.0664C95.4 66.311 90.8963 63.909 85.5497 64.0063C84.8512 64.0063 84.1287 64.055 83.924 64.0713Z" fill="#3B3E33"/>
</svg>
